<!--?xml version="1.0" encoding="utf-8"?-->
<!-- Generator: Adobe Illustrator 18.1.1, SVG Export Plug-In . SVG Version: 6.00 Build 0)  -->

<svg version="1.1" id="_x32_" xmlns="http://www.w3.org/2000/svg" xmlns:xlink="http://www.w3.org/1999/xlink" x="0px" y="0px" viewBox="0 0 512 512" style="width: 256px; height: 256px; opacity: 1;" xml:space="preserve">
<style type="text/css">
	.st0{fill:orange}
</style>
<g>
	<path class="st0" d="M326.257,410.356l-0.232,0.066c-0.02,0-0.039,0.014-0.06,0.02L326.257,410.356z"></path>
	<path class="st0" d="M470.491,410.356l-0.199,0.053c-0.026,0.014-0.053,0.027-0.086,0.033L470.491,410.356z"></path>
	<path class="st0" d="M507.553,333.703c-4.308-10.173-11.479-18.809-20.525-24.92c-2.963-2.002-6.19-3.619-9.524-5.037
		c27.087-30.029,29.108-70.888,25.523-88.198c-4.772-23.077-22.766-55.221-58.7-49.959c0,0-19.399-21.182-50.296-18.782
		c3.274-18.55,2.982-42.84-2.16-46.976l-9.212,1.326c4.831,15.309-0.206,34.039-4.832,46.28
		c-34.025-5.54-55.684,18.153-55.684,18.153c-35.935-5.262-53.921,26.882-58.7,49.959c-1.412,6.839-1.936,17.37-0.405,29.439
		c-3.831,0.862-7.814,1.71-11.936,2.539c-33.641,6.74-76.455,11.784-115.71,6.19c-4.553-0.65-9.034-1.491-13.474-2.432
		c-15.807-35.086-38.367-55.824-68.542-50.661c-12.565,2.134-24.323,8.364-31.295,18.412l-18.63,1.372
		c-1.385,0.099-2.612,0.974-3.148,2.26c-0.556,1.272-0.331,2.757,0.556,3.83l14.183,17.059c0.192,0.239,0.411,0.438,0.65,0.61
		c0.159,2.054,0.451,4.168,0.901,6.362c0.915,4.473,9.192,40.719,9.192,40.719h28.24c0,0,1.312-28.24,1.551-30.407
		c0.431-3.95,3.194-6.681,5.693,0l12.54,51.695l-35.384,23.408l10.856,47.864l18.504-2.545l-1.266-29.996l14.679-8.264
		l15.973,65.831h23.123l-5.905-53.749h46.432l16.854,21.069l-19.147,21.069l13.401,13.408l32.554-32.561l-10.445-22.984h8.536
		l33.794,53.749h23.647l-8.57-19.378l-34.198-73.38l12.288,0.245l10.597,29.903h12.592c-5.262-62.292-38.142-73.558-51.284-73.558
		h-71.226c-1.524-4.613-3.168-9.014-4.872-13.295c2.996,0.556,5.991,1.12,9.027,1.551c41.879,5.938,86.847,0.212,121.429-6.933
		c2.87-0.596,5.634-1.199,8.35-1.802c3.175,16.808,10.478,35.63,24.734,51.47c-10.094,4.307-18.677,11.438-24.747,20.425
		c-6.104,9.04-9.676,19.962-9.67,31.687c-0.007,7.8,1.584,15.263,4.447,22.05c4.308,10.167,11.485,18.809,20.525,24.92
		c9.033,6.097,19.962,9.676,31.673,9.676c5.136,0,10.12-0.689,14.858-1.975l0.053-0.014c11.254-3.062,21.102-9.49,28.399-18.133
		c7.31-8.662,12.075-19.571,13.122-31.534c0.153-1.65,0.226-3.32,0.226-4.99c0-6.091-0.994-11.97-2.784-17.49
		c5.786,0.557,11.824,0.888,18.246,0.888c6.429,0,12.48-0.331,18.272-0.888c-1.796,5.514-2.804,11.386-2.804,17.49
		c0,7.8,1.584,15.263,4.454,22.05c4.307,10.167,11.479,18.809,20.512,24.92c9.04,6.097,19.976,9.676,31.686,9.676
		c5.136,0,10.12-0.689,14.852-1.975l0.086-0.027c11.234-3.061,21.076-9.49,28.366-18.119c7.31-8.662,12.082-19.571,13.122-31.534
		c0.146-1.65,0.219-3.32,0.219-4.99C512.006,347.958,510.422,340.482,507.553,333.703z M458.641,319.825
		c3.122-2.034,6.018-4.202,8.756-6.455c1.75,0.497,3.492,1.001,5.143,1.696c4.261,1.796,8.172,4.255,11.625,7.237l-22.342,22.335
		c-0.537,0.531-1.332,0.69-2.034,0.398c-0.696-0.278-1.147-0.961-1.147-1.716V319.825z M314.4,323.768
		c5.077,2.784,10.671,5.23,16.715,7.344l-13.526,13.526c-0.53,0.531-1.339,0.69-2.034,0.398c-0.703-0.278-1.154-0.961-1.154-1.716
		V323.768z M270.42,338.574c1.803-4.255,4.261-8.165,7.237-11.631l22.335,22.334c0.53,0.544,0.696,1.346,0.41,2.042
		c-0.291,0.702-0.967,1.153-1.723,1.153h-31.592C267.458,347.567,268.591,342.902,270.42,338.574z M277.658,384.563
		c-1.126-1.3-2.194-2.678-3.161-4.11c-4.195-6.21-6.84-13.507-7.416-21.4h31.599c0.756,0,1.432,0.444,1.723,1.146
		c0.285,0.69,0.12,1.498-0.398,2.028L277.658,384.563z M307.826,399.779c-4.905-0.358-9.576-1.498-13.891-3.327
		c-4.262-1.802-8.179-4.254-11.632-7.237l22.348-22.334c0.53-0.537,1.332-0.702,2.028-0.412c0.696,0.299,1.147,0.982,1.147,1.73
		V399.779z M306.679,345.035c-0.696,0.292-1.498,0.133-2.028-0.398l-22.348-22.335c1.312-1.133,2.691-2.186,4.123-3.168
		c3.824-2.584,8.098-4.486,12.632-5.772c2.737,2.26,5.64,4.421,8.768,6.462v23.494C307.826,344.075,307.376,344.757,306.679,345.035
		z M322.705,398.374h-0.007c-2.677,0.729-5.448,1.22-8.298,1.418v-31.594c0-0.762,0.451-1.431,1.154-1.73
		c0.696-0.291,1.504-0.125,2.034,0.412l22.335,22.334C334.999,393.456,329.14,396.631,322.705,398.374z M355.107,359.656v0.014
		c-0.822,9.318-4.527,17.788-10.233,24.561c-0.093,0.113-0.199,0.225-0.305,0.332l-22.335-22.336
		c-0.53-0.53-0.696-1.338-0.404-2.028c0.285-0.702,0.967-1.146,1.716-1.146h31.594C355.133,359.245,355.12,359.457,355.107,359.656z
		 M355.153,352.471H323.56c-0.763,0-1.445-0.45-1.73-1.153c-0.292-0.696-0.126-1.498,0.404-2.042l15.919-15.919
		c3.99,1.133,8.185,2.108,12.58,2.93C353.171,341.231,354.722,346.679,355.153,352.471z M375.287,245.795h-39.042
		c0,0-10.041-53.888,39.042-53.888V245.795z M391.18,191.907c49.083,0,39.049,53.888,39.049,53.888H391.18V191.907z
		 M428.314,333.358l15.92,15.919c0.53,0.544,0.696,1.346,0.404,2.042c-0.285,0.702-0.968,1.153-1.717,1.153h-31.593
		c0.358-4.904,1.504-9.57,3.334-13.898c0.338-0.802,0.815-1.531,1.199-2.313C420.209,335.452,424.364,334.484,428.314,333.358z
		 M421.899,384.563c-1.14-1.3-2.194-2.678-3.168-4.11c-4.189-6.21-6.833-13.507-7.41-21.4h31.6c0.749,0,1.432,0.444,1.717,1.146
		c0.291,0.69,0.126,1.498-0.404,2.028L421.899,384.563z M452.067,399.779c-4.905-0.358-9.576-1.498-13.904-3.327
		c-4.255-1.802-8.166-4.254-11.618-7.237l22.335-22.334c0.53-0.537,1.338-0.702,2.041-0.412c0.696,0.299,1.146,0.982,1.146,1.73
		V399.779z M450.921,345.035c-0.703,0.292-1.511,0.133-2.041-0.398l-13.527-13.526c6.044-2.114,11.638-4.56,16.715-7.344v19.551
		C452.067,344.075,451.616,344.757,450.921,345.035z M466.946,398.374h-0.014c-2.67,0.729-5.441,1.22-8.291,1.418v-31.594
		c0-0.762,0.452-1.431,1.147-1.73c0.702-0.291,1.498-0.125,2.034,0.412l22.342,22.334
		C479.24,393.456,473.381,396.631,466.946,398.374z M499.334,359.656v0.014c-0.815,9.318-4.52,17.788-10.219,24.561
		c-0.1,0.113-0.206,0.225-0.305,0.332l-22.342-22.336c-0.524-0.53-0.689-1.338-0.404-2.028c0.292-0.702,0.974-1.146,1.723-1.146
		h31.594C499.361,359.245,499.355,359.457,499.334,359.656z M467.788,352.471c-0.749,0-1.431-0.45-1.723-1.153
		c-0.285-0.696-0.119-1.498,0.411-2.042l22.335-22.334c1.133,1.312,2.193,2.684,3.168,4.136c4.182,6.21,6.833,13.494,7.41,21.393
		H467.788z"></path>
	<path class="st0" d="M364.537,129.257c0,0-2.942,8.642,1.89,8.835c4.831,0.178,21.731-17.397,11.352-28.227
		c-6.76-7.058-27.199-13.931-24.826-8.059c2.379,5.872,4.162,7.98,4.162,7.98s-11.936,0.464-20.214,11.863
		C336.901,121.649,349.605,135.01,364.537,129.257z"></path>
</g>
</svg>
